# xmcd CD database file
#
# Track frame offsets:
#	150
#	20118
#	39628
#	59629
#	79427
#	100492
#	122069
#	138899
#	157018
#	178230
#	197759
#	218629
#	244894
#	271695
#	293025
#	312913
#	336249
#
# Disc length: 4752 seconds
#
# Revision: 0
# Processed by: cddbd v1.4PL0 Copyright (c) Steve Scherf et al.
# Submitted via: CDex 1.50
#
DISCID=08128e11
DTITLE=Varios Interpretes - Recopilacion Marcela
DYEAR=2003
DGENRE=Salsa
TTITLE0=Advertencia - Gilberto Santa Rosa
TTITLE1=anthony cruz - Una Vez Mas
TTITLE2=Desde que no estas - Rey Ruiz
TTITLE3=GilbertoSantaRosa - PorNada
TTITLE4=Han cogido la cosa - niche
TTITLE5=JuanLuisGuerra - OficioDeEnamorado
TTITLE6=JuanLuisGuerra - Quisiera
TTITLE7=Los Illegales - Te Recuerdo ( Salsa Version)
TTITLE8=me estoy enloqueciendo por ti - jerry rivera
TTITLE9=Mickey Taveras - Corazón Partio
TTITLE10=no me puedes dejar asi - Jerry Rivera
TTITLE11=no vale la pena - ray sepulveda
TTITLE12=Ruben Blades - Decisiones
TTITLE13=se nos perdio el amor - el gran combo
TTITLE14=Si Tu No Fueras - Marc Anthony
TTITLE15=Willie Gonzales - No es casualidad
TTITLE16=Yuri Buenaventura - Salsa
EXTD=YEAR: 2003
EXTT0=
EXTT1=
EXTT2=
EXTT3=
EXTT4=
EXTT5=
EXTT6=
EXTT7=
EXTT8=
EXTT9=
EXTT10=
EXTT11=
EXTT12=
EXTT13=
EXTT14=
EXTT15=
EXTT16=
PLAYORDER=
